<?xml version="1.0" encoding="utf-8"?>
<svg version="1.1" xmlns="http://www.w3.org/2000/svg" xmlns:xlink="http://www.w3.org/1999/xlink" x="0px" y="0px"
	 viewBox="0 0 40 34" enable-background="new 0 0 40 34" xml:space="preserve">
<g id="logo">
	<g id="Deuteragonist">
		<polygon fill="#21233D" points="39.5,5.2 36.2,11 36.2,11 27.1,9.8 23.5,21.5 19.8,33.3 13.8,30 16.9,20.1 20.3,9 0.8,6.6 0.7,6.6 0.5,6.5 4.9,1.5 20.4,3.2 33.4,4.6 35.6,0.7" />
		<polygon fill="#60EBD7" points="23.5,21.5 25.6,30 19.8,33.3" />
		<polygon fill="#60EBD7" points="35.6,0.7 33.4,4.6 31.8,7.3 20.3,9 16.9,20.1 14.6,9.8 5.3,11.2 0.6,6.6 0.7,6.6 0.8,6.6 20.4,3.2 20.9,3.1" />
	</g>
</g>
</svg>
